<svg xmlns="http://www.w3.org/2000/svg" viewBox="0 0 1136 195"><g fill="none" stroke-miterlimit="10"><path d="M112 57Zm474-31Zm0-21Z" aria-hidden="true"/><text fill="#000" font-family="sans-serif" font-size="11" font-weight="bold" text-anchor="middle" transform="translate(586 14)">type</text><path d="M110 57v100Zm.5.5Z" aria-hidden="true"/><path stroke="#888" d="M110.5 67.5h-5m5 20h-5m5 20h-5m5 20h-5m5 20h-5"/><g fill="#000" font-family="sans-serif" font-size="10" text-anchor="end"><text transform="translate(103.5 70)">null</text><text transform="translate(103.5 90)">s2d</text><text transform="translate(103.5 110)">CRT::StringToReal</text><text transform="translate(103.5 130)">std::from_chars</text><text transform="translate(103.5 150)">std::strtod</text></g><path stroke="#888" d="M110.5 57.5v100"/><text fill="#000" font-family="sans-serif" font-size="11" font-weight="bold" text-anchor="middle" transform="rotate(-90 61.465 46.035)">function</text><path d="M112 56h300-300Zm150-20Z" aria-hidden="true"/><text fill="#000" font-family="sans-serif" font-size="10" text-anchor="middle" transform="translate(262 44)">small</text><path d="M435 56h300-300Zm150-20Z" aria-hidden="true"/><text fill="#000" font-family="sans-serif" font-size="10" text-anchor="middle" transform="translate(585 44)">medium</text><path d="M759 56h300-300Zm150-20Z" aria-hidden="true"/><text fill="#000" font-family="sans-serif" font-size="10" text-anchor="middle" transform="translate(909 44)">large</text><path stroke="#ddd" d="M112.5 57.5h300v100h-300Z" aria-hidden="true"/><g aria-hidden="true"><path d="M112.5 157.5Z" aria-hidden="true"/><path stroke="#ddd" d="M112.5 157.5v-100m46 100v-100m46 100v-100m46 100v-100m47 100v-100m46 100v-100m46 100v-100"/></g><path d="M112.5 157.5Z" aria-hidden="true"/><path stroke="#888" d="M112.5 157.5v5m46-5v5m46-5v5m46-5v5m47-5v5m46-5v5m46-5v5"/><g fill="#000" font-family="sans-serif" font-size="10"><text transform="translate(112.5 172.5)">0</text><text text-anchor="middle" transform="translate(158.654 172.5)">20</text><text text-anchor="middle" transform="translate(204.808 172.5)">40</text><text text-anchor="middle" transform="translate(250.962 172.5)">60</text><text text-anchor="middle" transform="translate(297.115 172.5)">80</text><text text-anchor="middle" transform="translate(343.27 172.5)">100</text><text text-anchor="middle" transform="translate(389.423 172.5)">120</text></g><path stroke="#888" d="M112.5 157.5h300"/><text fill="#000" font-family="sans-serif" font-size="11" font-weight="bold" text-anchor="middle" transform="translate(262.5 187.5)">time(ns)</text><path fill="#e45756" d="M112 58h2.873v18H112Zm0 80h211.67v18H112Zm0-20h180.43v18H112Zm0-40h83.905v18H112Zm0 20h286.772v18H112Z" opacity=".96"/><path stroke="#ddd" d="M435.5 57.5h300v100h-300Z" aria-hidden="true"/><g aria-hidden="true"><path d="M435.5 157.5Z" aria-hidden="true"/><path stroke="#ddd" d="M435.5 157.5v-100m33 100v-100m34 100v-100m33 100v-100m33 100v-100m34 100v-100m33 100v-100m33 100v-100m34 100v-100m33 100v-100"/></g><path d="M435.5 157.5Z" aria-hidden="true"/><path stroke="#888" d="M435.5 157.5v5m33-5v5m34-5v5m33-5v5m33-5v5m34-5v5m33-5v5m33-5v5m34-5v5m33-5v5"/><g fill="#000" font-family="sans-serif" font-size="10"><text transform="translate(435.5 172.5)">0</text><text text-anchor="middle" transform="translate(468.833 172.5)">10</text><text text-anchor="middle" transform="translate(502.167 172.5)">20</text><text text-anchor="middle" transform="translate(535.5 172.5)">30</text><text text-anchor="middle" transform="translate(568.833 172.5)">40</text><text text-anchor="middle" transform="translate(602.167 172.5)">50</text><text text-anchor="middle" transform="translate(635.5 172.5)">60</text><text text-anchor="middle" transform="translate(668.833 172.5)">70</text><text text-anchor="middle" transform="translate(702.167 172.5)">80</text><text text-anchor="end" transform="translate(735.5 172.5)">90</text></g><path stroke="#888" d="M435.5 157.5h300"/><text fill="#000" font-family="sans-serif" font-size="11" font-weight="bold" text-anchor="middle" transform="translate(585.5 187.5)">time(ns)</text><path fill="#f58518" d="M435 58h4.17v18H435Zm0 80h271.32v18H435Zm0-20h220.56v18H435Zm0-40h74.463v18H435Zm0 20h140.34v18H435Z" opacity=".96"/><path stroke="#ddd" d="M759.5 57.5h300v100h-300Z" aria-hidden="true"/><g aria-hidden="true"><path d="M759.5 157.5Z" aria-hidden="true"/><path stroke="#ddd" d="M759.5 157.5v-100m30 100v-100m30 100v-100m30 100v-100m30 100v-100m30 100v-100m30 100v-100m30 100v-100m30 100v-100m30 100v-100m30 100v-100"/></g><path d="M759.5 157.5Z" aria-hidden="true"/><path stroke="#888" d="M759.5 157.5v5m30-5v5m30-5v5m30-5v5m30-5v5m30-5v5m30-5v5m30-5v5m30-5v5m30-5v5m30-5v5"/><g fill="#000" font-family="sans-serif" font-size="10"><text transform="translate(759.5 172.5)">0</text><text text-anchor="middle" transform="translate(819.5 172.5)">200</text><text text-anchor="middle" transform="translate(879.5 172.5)">400</text><text text-anchor="middle" transform="translate(939.5 172.5)">600</text><text text-anchor="middle" transform="translate(999.5 172.5)">800</text><text text-anchor="end" transform="translate(1059.5 172.5)">1,000</text></g><path stroke="#888" d="M759.5 157.5h300"/><text fill="#000" font-family="sans-serif" font-size="11" font-weight="bold" text-anchor="middle" transform="translate(909.5 187.5)">time(ns)</text><path fill="#4c78a8" d="M759 58h.304v18H759Zm0 80h290.325v18H759Zm0-20h272.15v18H759Zm0-40h27.206v18H759Zm0 20h261.93v18H759Z" opacity=".96"/><path d="M1079 57h52v53h-52Zm0 16Z" aria-hidden="true"/><path d="M1079 73h51.566v11H1079Z" aria-hidden="true"/><path fill="#4c78a8" d="M1080 74h10v10h-10Z" opacity=".96"/><text fill="#000" font-family="sans-serif" font-size="10" transform="translate(1095 82)">large</text><path d="M1079 86h51.566v11H1079Z" aria-hidden="true"/><path fill="#f58518" d="M1080 87h10v10h-10Z" opacity=".96"/><text fill="#000" font-family="sans-serif" font-size="10" transform="translate(1095 95)">medium</text><path d="M1079 99h51.566v11H1079Z" aria-hidden="true"/><path fill="#e45756" d="M1080 100h10v10h-10Z" opacity=".96"/><text fill="#000" font-family="sans-serif" font-size="10" transform="translate(1095 108)">small</text><text fill="#000" font-family="sans-serif" font-size="11" font-weight="bold" transform="translate(1079 66)">type</text></g></svg>