<svg xmlns="http://www.w3.org/2000/svg" viewBox="0 0 1212 215"><g fill="none" stroke-miterlimit="10"><text fill="#000" font-family="sans-serif" font-size="11" font-weight="bold" text-anchor="middle" transform="translate(661 14)">type</text><path d="M185 57v120Z" aria-hidden="true"/><path stroke="#888" d="M185.5 67.5h-5m5 20h-5m5 20h-5m5 20h-5m5 20h-5m5 20h-5"/><g fill="#000" font-family="sans-serif" font-size="10" text-anchor="end"><text transform="translate(178.5 70)">null</text><text transform="translate(178.5 90)">s2d</text><text transform="translate(178.5 110)">CRT::StringToReal</text><text transform="translate(178.5 130)">double_conversion::StringToDouble</text><text transform="translate(178.5 150)">std::from_chars</text><text transform="translate(178.5 170)">std::strtod</text></g><path stroke="#888" d="M185.5 57.5v120"/><text fill="#000" font-family="sans-serif" font-size="11" font-weight="bold" text-anchor="middle" transform="rotate(-90 66.06 51.44)">function</text><path d="M187 56h300z" aria-hidden="true"/><text fill="#000" font-family="sans-serif" font-size="10" text-anchor="middle" transform="translate(337 44)">small</text><path d="M511 56h300z" aria-hidden="true"/><text fill="#000" font-family="sans-serif" font-size="10" text-anchor="middle" transform="translate(661 44)">medium</text><path d="M835 56h300z" aria-hidden="true"/><text fill="#000" font-family="sans-serif" font-size="10" text-anchor="middle" transform="translate(985 44)">large</text><path stroke="#ddd" d="M187.5 57.5h300v120h-300Zm0 120v-120m27 120v-120m28 120v-120m27 120v-120m27 120v-120m27 120v-120m28 120v-120m27 120v-120m27 120v-120m27 120v-120m28 120v-120m27 120v-120" aria-hidden="true"/><path stroke="#888" d="M187.5 177.5v5m27-5v5m28-5v5m27-5v5m27-5v5m27-5v5m28-5v5m27-5v5m27-5v5m27-5v5m28-5v5m27-5v5"/><g fill="#000" font-family="sans-serif" font-size="10"><text transform="translate(187.5 192.5)">0</text><text text-anchor="middle" transform="translate(214.773 192.5)">10</text><text text-anchor="middle" transform="translate(242.045 192.5)">20</text><text text-anchor="middle" transform="translate(269.318 192.5)">30</text><text text-anchor="middle" transform="translate(296.59 192.5)">40</text><text text-anchor="middle" transform="translate(323.864 192.5)">50</text><text text-anchor="middle" transform="translate(351.136 192.5)">60</text><text text-anchor="middle" transform="translate(378.41 192.5)">70</text><text text-anchor="middle" transform="translate(405.682 192.5)">80</text><text text-anchor="middle" transform="translate(432.955 192.5)">90</text><text text-anchor="middle" transform="translate(460.227 192.5)">100</text><text text-anchor="end" transform="translate(487.5 192.5)">110</text></g><path stroke="#888" d="M187.5 177.5h300"/><text fill="#000" font-family="sans-serif" font-size="11" font-weight="bold" text-anchor="middle" transform="translate(337.5 207.5)">time(ns)</text><path fill="#4c78a8" d="M187 58h2.714v18H187Zm0 100h295.923v18H187Zm0-20h168.215v18H187Zm0-20h151.154v18H187Zm0-40h83.037v18H187Zm0 20h259.443v18H187Z" opacity=".96"/><path stroke="#ddd" d="M511.5 57.5h300v120h-300Zm0 120v-120m38 120v-120m37 120v-120m38 120v-120m37 120v-120m38 120v-120m37 120v-120m38 120v-120m37 120v-120" aria-hidden="true"/><path stroke="#888" d="M511.5 177.5v5m38-5v5m37-5v5m38-5v5m37-5v5m38-5v5m37-5v5m38-5v5m37-5v5"/><g fill="#000" font-family="sans-serif" font-size="10"><text transform="translate(511.5 192.5)">0</text><text text-anchor="middle" transform="translate(549 192.5)">10</text><text text-anchor="middle" transform="translate(586.5 192.5)">20</text><text text-anchor="middle" transform="translate(624 192.5)">30</text><text text-anchor="middle" transform="translate(661.5 192.5)">40</text><text text-anchor="middle" transform="translate(699 192.5)">50</text><text text-anchor="middle" transform="translate(736.5 192.5)">60</text><text text-anchor="middle" transform="translate(774 192.5)">70</text><text text-anchor="end" transform="translate(811.5 192.5)">80</text></g><path stroke="#888" d="M511.5 177.5h300"/><text fill="#000" font-family="sans-serif" font-size="11" font-weight="bold" text-anchor="middle" transform="translate(661.5 207.5)">time(ns)</text><path fill="#f58518" d="M511 58h4.714v18H511Zm0 100h299.25v18H511Zm0-20h216.487v18H511Zm0-20h252.285v18H511Zm0-40h74.01v18H511Zm0 20h129.319v18H511Z" opacity=".96"/><path stroke="#ddd" d="M835.5 57.5h300v120h-300Zm0 120v-120m30 120v-120m30 120v-120m30 120v-120m30 120v-120m30 120v-120m30 120v-120m30 120v-120m30 120v-120m30 120v-120m30 120v-120" aria-hidden="true"/><path stroke="#888" d="M835.5 177.5v5m30-5v5m30-5v5m30-5v5m30-5v5m30-5v5m30-5v5m30-5v5m30-5v5m30-5v5m30-5v5"/><g fill="#000" font-family="sans-serif" font-size="10"><text transform="translate(835.5 192.5)">0</text><text text-anchor="middle" transform="translate(895.5 192.5)">200</text><text text-anchor="middle" transform="translate(955.5 192.5)">400</text><text text-anchor="middle" transform="translate(1015.5 192.5)">600</text><text text-anchor="middle" transform="translate(1075.5 192.5)">800</text><text text-anchor="end" transform="translate(1135.5 192.5)">1,000</text></g><path stroke="#888" d="M835.5 177.5h300"/><text fill="#000" font-family="sans-serif" font-size="11" font-weight="bold" text-anchor="middle" transform="translate(985.5 207.5)">time(ns)</text><path fill="#e45756" d="M835 58h.31v18H835Zm0 100h277.234v18H835Zm0-20h250.637v18H835Zm0-20h107.863v18H835Zm0-40h10.41v18H835Zm0 20h59.059v18H835Z" opacity=".96"/><path d="M1155 57h52v53h-52Z" aria-hidden="true"/><path d="M1155 73h51.566v11H1155Z" aria-hidden="true"/><path fill="#4c78a8" d="M1156 74h10v10h-10Z" opacity=".96"/><text fill="#000" font-family="sans-serif" font-size="10" transform="translate(1171 82)">small</text><path d="M1155 86h51.566v11H1155Z" aria-hidden="true"/><path fill="#f58518" d="M1156 87h10v10h-10Z" opacity=".96"/><text fill="#000" font-family="sans-serif" font-size="10" transform="translate(1171 95)">medium</text><path d="M1155 99h51.566v11H1155Z" aria-hidden="true"/><path fill="#e45756" d="M1156 100h10v10h-10Z" opacity=".96"/><text fill="#000" font-family="sans-serif" font-size="10" transform="translate(1171 108)">large</text><text fill="#000" font-family="sans-serif" font-size="11" font-weight="bold" transform="translate(1155 66)">type</text></g></svg>