<svg xmlns="http://www.w3.org/2000/svg" viewBox="0 0 1137 195"><g fill="none" stroke-miterlimit="10"><path d="M112 57Zm474-31Zm0-21Z" aria-hidden="true"/><text fill="#fff" font-family="sans-serif" font-size="11" font-weight="bold" text-anchor="middle" transform="translate(586 14)">type</text><path d="M110 57v100Zm.5.5Z" aria-hidden="true"/><path stroke="#888" d="M110.5 67.5h-5m5 20h-5m5 20h-5m5 20h-5m5 20h-5"/><g fill="#fff" font-family="sans-serif" font-size="10" text-anchor="end"><text transform="translate(103.5 70)">null</text><text transform="translate(103.5 90)">s2d</text><text transform="translate(103.5 110)">CRT::StringToReal</text><text transform="translate(103.5 130)">std::from_chars</text><text transform="translate(103.5 150)">std::strtod</text></g><path stroke="#888" d="M110.5 57.5v100"/><text fill="#fff" font-family="sans-serif" font-size="11" font-weight="bold" text-anchor="middle" transform="rotate(-90 61.465 46.035)">function</text><path d="M112 56h300-300Zm150-20Z" aria-hidden="true"/><text fill="#fff" font-family="sans-serif" font-size="10" text-anchor="middle" transform="translate(262 44)">small</text><path d="M436 56h300-300Zm150-20Z" aria-hidden="true"/><text fill="#fff" font-family="sans-serif" font-size="10" text-anchor="middle" transform="translate(586 44)">medium</text><path d="M760 56h300-300Zm150-20Z" aria-hidden="true"/><text fill="#fff" font-family="sans-serif" font-size="10" text-anchor="middle" transform="translate(910 44)">large</text><path stroke="#ddd" d="M112.5 57.5h300v100h-300Z" aria-hidden="true"/><g aria-hidden="true"><path d="M112.5 157.5Z" aria-hidden="true"/><path stroke="#ddd" d="M112.5 157.5v-100m50 100v-100m50 100v-100m50 100v-100m50 100v-100m50 100v-100m50 100v-100"/></g><path d="M112.5 157.5Z" aria-hidden="true"/><path stroke="#888" d="M112.5 157.5v5m50-5v5m50-5v5m50-5v5m50-5v5m50-5v5m50-5v5"/><g fill="#fff" font-family="sans-serif" font-size="10"><text transform="translate(112.5 172.5)">0</text><text text-anchor="middle" transform="translate(162.5 172.5)">20</text><text text-anchor="middle" transform="translate(212.5 172.5)">40</text><text text-anchor="middle" transform="translate(262.5 172.5)">60</text><text text-anchor="middle" transform="translate(312.5 172.5)">80</text><text text-anchor="middle" transform="translate(362.5 172.5)">100</text><text text-anchor="end" transform="translate(412.5 172.5)">120</text></g><path stroke="#888" d="M112.5 157.5h300"/><text fill="#fff" font-family="sans-serif" font-size="11" font-weight="bold" text-anchor="middle" transform="translate(262.5 187.5)">time(ns)</text><path fill="#4c78a8" d="M112 58h3.005v18H112Zm0 80h228.593v18H112Zm0-20h161.255v18H112Zm0-40h90.24v18H112Zm0 20h296.875v18H112Z" opacity=".96"/><path stroke="#ddd" d="M436.5 57.5h300v100h-300Z" aria-hidden="true"/><g aria-hidden="true"><path d="M436.5 157.5Z" aria-hidden="true"/><path stroke="#ddd" d="M436.5 157.5v-100m38 100v-100m37 100v-100m38 100v-100m37 100v-100m38 100v-100m37 100v-100m38 100v-100m37 100v-100"/></g><path d="M436.5 157.5Z" aria-hidden="true"/><path stroke="#888" d="M436.5 157.5v5m38-5v5m37-5v5m38-5v5m37-5v5m38-5v5m37-5v5m38-5v5m37-5v5"/><g fill="#fff" font-family="sans-serif" font-size="10"><text transform="translate(436.5 172.5)">0</text><text text-anchor="middle" transform="translate(474 172.5)">10</text><text text-anchor="middle" transform="translate(511.5 172.5)">20</text><text text-anchor="middle" transform="translate(549 172.5)">30</text><text text-anchor="middle" transform="translate(586.5 172.5)">40</text><text text-anchor="middle" transform="translate(624 172.5)">50</text><text text-anchor="middle" transform="translate(661.5 172.5)">60</text><text text-anchor="middle" transform="translate(699 172.5)">70</text><text text-anchor="end" transform="translate(736.5 172.5)">80</text></g><path stroke="#888" d="M436.5 157.5h300"/><text fill="#fff" font-family="sans-serif" font-size="11" font-weight="bold" text-anchor="middle" transform="translate(586.5 187.5)">time(ns)</text><path fill="#f58518" d="M436 58h4.601v18H436Zm0 80h286.676v18H436Zm0-20h264.634v18H436Zm0-40h81.277v18H436Zm0 20h150.034v18H436Z" opacity=".96"/><path stroke="#ddd" d="M760.5 57.5h300v100h-300Z" aria-hidden="true"/><g aria-hidden="true"><path d="M760.5 157.5Z" aria-hidden="true"/><path stroke="#ddd" d="M760.5 157.5v-100m30 100v-100m30 100v-100m30 100v-100m30 100v-100m30 100v-100m30 100v-100m30 100v-100m30 100v-100m30 100v-100m30 100v-100"/></g><path d="M760.5 157.5Z" aria-hidden="true"/><path stroke="#888" d="M760.5 157.5v5m30-5v5m30-5v5m30-5v5m30-5v5m30-5v5m30-5v5m30-5v5m30-5v5m30-5v5m30-5v5"/><g fill="#fff" font-family="sans-serif" font-size="10"><text transform="translate(760.5 172.5)">0</text><text text-anchor="middle" transform="translate(820.5 172.5)">200</text><text text-anchor="middle" transform="translate(880.5 172.5)">400</text><text text-anchor="middle" transform="translate(940.5 172.5)">600</text><text text-anchor="middle" transform="translate(1000.5 172.5)">800</text><text text-anchor="end" transform="translate(1060.5 172.5)">1,000</text></g><path stroke="#888" d="M760.5 157.5h300"/><text fill="#fff" font-family="sans-serif" font-size="11" font-weight="bold" text-anchor="middle" transform="translate(910.5 187.5)">time(ns)</text><path fill="#e45756" d="M760 58h.368v18H760Zm0 80h283.336v18H760Zm0-20h274.171v18H760Zm0-40h26.54v18H760Zm0 20h251.22v18H760Z" opacity=".96"/><path d="M1080 57h52v53h-52Zm0 16Z" aria-hidden="true"/><path d="M1080 73h51.566v11H1080Z" aria-hidden="true"/><path fill="#4c78a8" d="M1081 74h10v10h-10Z" opacity=".96"/><text fill="#fff" font-family="sans-serif" font-size="10" transform="translate(1096 82)">small</text><path d="M1080 86h51.566v11H1080Z" aria-hidden="true"/><path fill="#f58518" d="M1081 87h10v10h-10Z" opacity=".96"/><text fill="#fff" font-family="sans-serif" font-size="10" transform="translate(1096 95)">medium</text><path d="M1080 99h51.566v11H1080Z" aria-hidden="true"/><path fill="#e45756" d="M1081 100h10v10h-10Z" opacity=".96"/><text fill="#fff" font-family="sans-serif" font-size="10" transform="translate(1096 108)">large</text><text fill="#fff" font-family="sans-serif" font-size="11" font-weight="bold" transform="translate(1080 66)">type</text></g></svg>