<svg xmlns="http://www.w3.org/2000/svg" class="marks" viewBox="0 0 1136 195"><g fill="none" stroke-miterlimit="10" aria-roledescription="group mark container" class="mark-group role-frame root"><path d="M112 57Z" aria-hidden="true" class="background"/><g aria-roledescription="group mark container" class="mark-group role-column-title column-title"><path d="M586 26Z" aria-hidden="true" class="background"/><g class="mark-group role-title" pointer-events="none"><path d="M586 5Z" aria-hidden="true" class="background"/><text fill="#fff" aria-label="Title text 'type'" aria-roledescription="title" class="mark-text role-title-text" font-family="sans-serif" font-size="11" font-weight="bold" text-anchor="middle" transform="translate(586 14)">type</text></g></g><g aria-roledescription="group mark container" class="mark-group role-row-header row_header"><path d="M110 57v100Z" aria-hidden="true" class="background"/><g aria-label="Y-axis titled 'function' for a discrete scale with 5 values: null, s2d, CRT::StringToReal, std::from_chars, std::strtod" aria-roledescription="axis" class="mark-group role-axis" pointer-events="none"><path d="M110.5 57.5Z" aria-hidden="true" class="background"/><path stroke="#888" d="M110.5 67.5h-5m5 20h-5m5 20h-5m5 20h-5m5 20h-5" class="mark-rule role-axis-tick"/><g fill="#fff" class="mark-text role-axis-label" font-family="sans-serif" font-size="10" text-anchor="end"><text transform="translate(103.5 70)">null</text><text transform="translate(103.5 90)">s2d</text><text transform="translate(103.5 110)">CRT::StringToReal</text><text transform="translate(103.5 130)">std::from_chars</text><text transform="translate(103.5 150)">std::strtod</text></g><path stroke="#888" d="M110.5 57.5v100" class="mark-rule role-axis-domain"/><text fill="#fff" class="mark-text role-axis-title" font-family="sans-serif" font-size="11" font-weight="bold" text-anchor="middle" transform="rotate(-90 61.465 46.035)">function</text></g></g><g aria-roledescription="group mark container" class="mark-group role-column-header column_header"><path d="M112 56h300-300Z" aria-hidden="true" class="background"/><g class="mark-group role-title" pointer-events="none"><path d="M262 36Z" aria-hidden="true" class="background"/><text fill="#fff" aria-label="Title text 'large'" aria-roledescription="title" class="mark-text role-title-text" font-family="sans-serif" font-size="10" text-anchor="middle" transform="translate(262 44)">large</text></g><path d="M436 56h300-300Z" aria-hidden="true" class="background"/><g class="mark-group role-title" pointer-events="none"><path d="M586 36Z" aria-hidden="true" class="background"/><text fill="#fff" aria-label="Title text 'medium'" aria-roledescription="title" class="mark-text role-title-text" font-family="sans-serif" font-size="10" text-anchor="middle" transform="translate(586 44)">medium</text></g><path d="M760 56h300-300Z" aria-hidden="true" class="background"/><g class="mark-group role-title" pointer-events="none"><path d="M910 36Z" aria-hidden="true" class="background"/><text fill="#fff" aria-label="Title text 'small'" aria-roledescription="title" class="mark-text role-title-text" font-family="sans-serif" font-size="10" text-anchor="middle" transform="translate(910 44)">small</text></g></g><g aria-roledescription="group mark container" class="mark-group role-scope cell"><path stroke="#888" d="M112.5 57.5h300v100h-300Z" aria-hidden="true" class="background"/><g aria-hidden="true" class="mark-group role-axis" pointer-events="none"><path d="M112.5 157.5Z" aria-hidden="true" class="background"/><path stroke="#888" d="M112.5 157.5v-100m30 100v-100m30 100v-100m30 100v-100m30 100v-100m30 100v-100m30 100v-100m30 100v-100m30 100v-100m30 100v-100m30 100v-100" class="mark-rule role-axis-grid"/></g><g aria-label="X-axis titled 'time(ns)' for a linear scale with values from 0 to 1,000" aria-roledescription="axis" class="mark-group role-axis" pointer-events="none"><path d="M112.5 157.5Z" aria-hidden="true" class="background"/><path stroke="#888" d="M112.5 157.5v5m30-5v5m30-5v5m30-5v5m30-5v5m30-5v5m30-5v5m30-5v5m30-5v5m30-5v5m30-5v5" class="mark-rule role-axis-tick"/><g fill="#fff" class="mark-text role-axis-label" font-family="sans-serif" font-size="10"><text transform="translate(112.5 172.5)">0</text><text text-anchor="middle" transform="translate(172.5 172.5)">200</text><text text-anchor="middle" transform="translate(232.5 172.5)">400</text><text text-anchor="middle" transform="translate(292.5 172.5)">600</text><text text-anchor="middle" transform="translate(352.5 172.5)">800</text><text text-anchor="end" transform="translate(412.5 172.5)">1,000</text></g><path stroke="#888" d="M112.5 157.5h300" class="mark-rule role-axis-domain"/><text fill="#fff" class="mark-text role-axis-title" font-family="sans-serif" font-size="11" font-weight="bold" text-anchor="middle" transform="translate(262.5 187.5)">time(ns)</text></g><g fill="#4c78a8" aria-roledescription="rect mark container" class="mark-rect role-mark child_marks"><path d="M112 58h.31v18H112Z" aria-label="time(ns): 1.031; function: null; type: large; name: MSC" aria-roledescription="bar" opacity=".96"/><path d="M112 138h273.746v18H112Z" aria-label="time(ns): 912.488; function: std::strtod; type: large; name: MSC" aria-roledescription="bar" opacity=".96"/><path d="M112 118h271.293v18H112Z" aria-label="time(ns): 904.309; function: std::from_chars; type: large; name: MSC" aria-roledescription="bar" opacity=".96"/><path d="M112 78h27.793v18H112Z" aria-label="time(ns): 92.645; function: s2d; type: large; name: RYU" aria-roledescription="bar" opacity=".96"/><path d="M112 98h252.67v18H112Z" aria-label="time(ns): 842.236; function: CRT::StringToReal; type: large; name: Q-TEE" aria-roledescription="bar" opacity=".96"/></g><path stroke="#888" d="M436.5 57.5h300v100h-300Z" aria-hidden="true" class="background"/><g aria-hidden="true" class="mark-group role-axis" pointer-events="none"><path d="M436.5 157.5Z" aria-hidden="true" class="background"/><path stroke="#888" d="M436.5 157.5v-100m38 100v-100m37 100v-100m38 100v-100m37 100v-100m38 100v-100m37 100v-100m38 100v-100m37 100v-100" class="mark-rule role-axis-grid"/></g><g aria-label="X-axis titled 'time(ns)' for a linear scale with values from 0 to 80" aria-roledescription="axis" class="mark-group role-axis" pointer-events="none"><path d="M436.5 157.5Z" aria-hidden="true" class="background"/><path stroke="#888" d="M436.5 157.5v5m38-5v5m37-5v5m38-5v5m37-5v5m38-5v5m37-5v5m38-5v5m37-5v5" class="mark-rule role-axis-tick"/><g fill="#fff" class="mark-text role-axis-label" font-family="sans-serif" font-size="10"><text transform="translate(436.5 172.5)">0</text><text text-anchor="middle" transform="translate(474 172.5)">10</text><text text-anchor="middle" transform="translate(511.5 172.5)">20</text><text text-anchor="middle" transform="translate(549 172.5)">30</text><text text-anchor="middle" transform="translate(586.5 172.5)">40</text><text text-anchor="middle" transform="translate(624 172.5)">50</text><text text-anchor="middle" transform="translate(661.5 172.5)">60</text><text text-anchor="middle" transform="translate(699 172.5)">70</text><text text-anchor="end" transform="translate(736.5 172.5)">80</text></g><path stroke="#888" d="M436.5 157.5h300" class="mark-rule role-axis-domain"/><text fill="#fff" class="mark-text role-axis-title" font-family="sans-serif" font-size="11" font-weight="bold" text-anchor="middle" transform="translate(586.5 187.5)">time(ns)</text></g><g fill="#f58518" aria-roledescription="rect mark container" class="mark-rect role-mark child_marks"><path d="M436 58h3.754v18H436Z" aria-label="time(ns): 1.001; function: null; type: medium; name: MSC" aria-roledescription="bar" opacity=".96"/><path d="M436 138h279.533v18H436Z" aria-label="time(ns): 74.542; function: std::strtod; type: medium; name: MSC" aria-roledescription="bar" opacity=".96"/><path d="M436 118h248.224v18H436Z" aria-label="time(ns): 66.193; function: std::from_chars; type: medium; name: MSC" aria-roledescription="bar" opacity=".96"/><path d="M436 78h84.547v18H436Z" aria-label="time(ns): 22.546; function: s2d; type: medium; name: RYU" aria-roledescription="bar" opacity=".96"/><path d="M436 98h153.465v18H436Z" aria-label="time(ns): 40.924; function: CRT::StringToReal; type: medium; name: Q-TEE" aria-roledescription="bar" opacity=".96"/></g><path stroke="#888" d="M760.5 57.5h300v100h-300Z" aria-hidden="true" class="background"/><g aria-hidden="true" class="mark-group role-axis" pointer-events="none"><path d="M760.5 157.5Z" aria-hidden="true" class="background"/><path stroke="#888" d="M760.5 157.5v-100m46 100v-100m46 100v-100m46 100v-100m47 100v-100m46 100v-100m46 100v-100" class="mark-rule role-axis-grid"/></g><g aria-label="X-axis titled 'time(ns)' for a linear scale with values from 0 to 130" aria-roledescription="axis" class="mark-group role-axis" pointer-events="none"><path d="M760.5 157.5Z" aria-hidden="true" class="background"/><path stroke="#888" d="M760.5 157.5v5m46-5v5m46-5v5m46-5v5m47-5v5m46-5v5m46-5v5" class="mark-rule role-axis-tick"/><g fill="#fff" class="mark-text role-axis-label" font-family="sans-serif" font-size="10"><text transform="translate(760.5 172.5)">0</text><text text-anchor="middle" transform="translate(806.654 172.5)">20</text><text text-anchor="middle" transform="translate(852.808 172.5)">40</text><text text-anchor="middle" transform="translate(898.962 172.5)">60</text><text text-anchor="middle" transform="translate(945.115 172.5)">80</text><text text-anchor="middle" transform="translate(991.27 172.5)">100</text><text text-anchor="middle" transform="translate(1037.423 172.5)">120</text></g><path stroke="#888" d="M760.5 157.5h300" class="mark-rule role-axis-domain"/><text fill="#fff" class="mark-text role-axis-title" font-family="sans-serif" font-size="11" font-weight="bold" text-anchor="middle" transform="translate(910.5 187.5)">time(ns)</text></g><g fill="#e45756" aria-roledescription="rect mark container" class="mark-rect role-mark child_marks"><path d="M760 58h2.86v18H760Z" aria-label="time(ns): 1.239; function: null; type: small; name: MSC" aria-roledescription="bar" opacity=".96"/><path d="M760 138h208.853v18H760Z" aria-label="time(ns): 90.503; function: std::strtod; type: small; name: MSC" aria-roledescription="bar" opacity=".96"/><path d="M760 118h153.217v18H760Z" aria-label="time(ns): 66.394; function: std::from_chars; type: small; name: MSC" aria-roledescription="bar" opacity=".96"/><path d="M760 78h79.708v18H760Z" aria-label="time(ns): 34.54; function: s2d; type: small; name: RYU" aria-roledescription="bar" opacity=".96"/><path d="M760 98h279.307v18H760Z" aria-label="time(ns): 121.033; function: CRT::StringToReal; type: small; name: Q-TEE" aria-roledescription="bar" opacity=".96"/></g></g><g aria-label="Symbol legend titled 'type' for fill color with 3 values: large, medium, small" aria-roledescription="legend" class="mark-group role-legend" pointer-events="none"><path d="M1079 57h52v53h-52Z" aria-hidden="true" class="background"/><g class="mark-group role-legend-entry"><path d="M1079 73Z" aria-hidden="true" class="background"/><g aria-roledescription="group mark container" class="mark-group role-scope"><path d="M1079 73h51.566v11H1079Z" aria-hidden="true" class="background"/><path fill="#4c78a8" d="M1080 74h10v10h-10Z" class="mark-symbol role-legend-symbol" opacity=".96"/><text fill="#fff" class="mark-text role-legend-label" font-family="sans-serif" font-size="10" transform="translate(1095 82)">large</text><path d="M1079 86h51.566v11H1079Z" aria-hidden="true" class="background"/><path fill="#f58518" d="M1080 87h10v10h-10Z" class="mark-symbol role-legend-symbol" opacity=".96"/><text fill="#fff" class="mark-text role-legend-label" font-family="sans-serif" font-size="10" transform="translate(1095 95)">medium</text><path d="M1079 99h51.566v11H1079Z" aria-hidden="true" class="background"/><path fill="#e45756" d="M1080 100h10v10h-10Z" class="mark-symbol role-legend-symbol" opacity=".96"/><text fill="#fff" class="mark-text role-legend-label" font-family="sans-serif" font-size="10" transform="translate(1095 108)">small</text></g></g><text fill="#fff" class="mark-text role-legend-title" font-family="sans-serif" font-size="11" font-weight="bold" transform="translate(1079 66)">type</text></g></g></svg>