<svg xmlns="http://www.w3.org/2000/svg" class="marks" viewBox="0 0 1179 315"><path fill="#fff" d="M0 0h1179v315H0z"/><g fill="none" stroke-miterlimit="10" aria-roledescription="group mark container" class="mark-group role-frame root"><path d="M154 57Z" aria-hidden="true" class="background"/><g aria-roledescription="group mark container" class="mark-group role-column-title column-title"><path d="M628 26Z" aria-hidden="true" class="background"/><g class="mark-group role-title" pointer-events="none"><path d="M628 5Z" aria-hidden="true" class="background"/><text fill="currentColor" aria-label="Title text 'type'" aria-roledescription="title" class="mark-text role-title-text" font-family="sans-serif" font-size="11" font-weight="bold" text-anchor="middle" transform="translate(628 14)">type</text></g></g><g aria-roledescription="group mark container" class="mark-group role-row-header row_header"><path d="M152 57v220Z" aria-hidden="true" class="background"/><g aria-label="Y-axis titled 'function' for a discrete scale with 11 values: null, std::to_chars, double_conversion::ToFixed, dtoa_milo, fpconv_dtoa, ending with std::to_string" aria-roledescription="axis" class="mark-group role-axis" pointer-events="none"><path d="M152.5 57.5Z" aria-hidden="true" class="background"/><path stroke="#888" d="M152.5 67.5h-5m5 20h-5m5 20h-5m5 20h-5m5 20h-5m5 20h-5m5 20h-5m5 20h-5m5 20h-5m5 20h-5m5 20h-5" class="mark-rule role-axis-tick"/><g fill="currentColor" class="mark-text role-axis-label" font-family="sans-serif" font-size="10" text-anchor="end"><text transform="translate(145.5 70)">null</text><text transform="translate(145.5 90)">std::to_chars</text><text transform="translate(145.5 110)">double_conversion::ToFixed</text><text transform="translate(145.5 130)">dtoa_milo</text><text transform="translate(145.5 150)">fpconv_dtoa</text><text transform="translate(145.5 170)">stbsp_snprintf</text><text transform="translate(145.5 190)">d2fixed_buffered</text><text transform="translate(145.5 210)">CRT::RealToString</text><text transform="translate(145.5 230)">std::sprintf_s</text><text transform="translate(145.5 250)">std::ostringstream</text><text transform="translate(145.5 270)">std::to_string</text></g><path stroke="#888" d="M152.5 57.5v220" class="mark-rule role-axis-domain"/><text fill="currentColor" class="mark-text role-axis-title" font-family="sans-serif" font-size="11" font-weight="bold" text-anchor="middle" transform="rotate(-90 91.24 76.26)">function</text></g></g><g aria-roledescription="group mark container" class="mark-group role-column-header column_header"><path d="M154 56h300-300Z" aria-hidden="true" class="background"/><g class="mark-group role-title" pointer-events="none"><path d="M304 36Z" aria-hidden="true" class="background"/><text fill="currentColor" aria-label="Title text 'large'" aria-roledescription="title" class="mark-text role-title-text" font-family="sans-serif" font-size="10" text-anchor="middle" transform="translate(304 44)">large</text></g><path d="M478 56h300-300Z" aria-hidden="true" class="background"/><g class="mark-group role-title" pointer-events="none"><path d="M628 36Z" aria-hidden="true" class="background"/><text fill="currentColor" aria-label="Title text 'medium'" aria-roledescription="title" class="mark-text role-title-text" font-family="sans-serif" font-size="10" text-anchor="middle" transform="translate(628 44)">medium</text></g><path d="M802 56h300-300Z" aria-hidden="true" class="background"/><g class="mark-group role-title" pointer-events="none"><path d="M952 36Z" aria-hidden="true" class="background"/><text fill="currentColor" aria-label="Title text 'small'" aria-roledescription="title" class="mark-text role-title-text" font-family="sans-serif" font-size="10" text-anchor="middle" transform="translate(952 44)">small</text></g></g><g aria-roledescription="group mark container" class="mark-group role-scope cell"><path stroke="#888" d="M154.5 57.5h300v220h-300Z" aria-hidden="true" class="background"/><g aria-hidden="true" class="mark-group role-axis" pointer-events="none"><path d="M154.5 277.5Z" aria-hidden="true" class="background"/><path stroke="#888" d="M154.5 277.5v-220m50 220v-220m50 220v-220m50 220v-220m50 220v-220m50 220v-220m50 220v-220" class="mark-rule role-axis-grid"/></g><g aria-label="X-axis titled 'time(ns)' for a linear scale with values from 0 to 6,000" aria-roledescription="axis" class="mark-group role-axis" pointer-events="none"><path d="M154.5 277.5Z" aria-hidden="true" class="background"/><path stroke="#888" d="M154.5 277.5v5m50-5v5m50-5v5m50-5v5m50-5v5m50-5v5m50-5v5" class="mark-rule role-axis-tick"/><g fill="currentColor" class="mark-text role-axis-label" font-family="sans-serif" font-size="10"><text transform="translate(154.5 292.5)">0</text><text text-anchor="middle" transform="translate(204.5 292.5)">1,000</text><text text-anchor="middle" transform="translate(254.5 292.5)">2,000</text><text text-anchor="middle" transform="translate(304.5 292.5)">3,000</text><text text-anchor="middle" transform="translate(354.5 292.5)">4,000</text><text text-anchor="middle" transform="translate(404.5 292.5)">5,000</text><text text-anchor="end" transform="translate(454.5 292.5)">6,000</text></g><path stroke="#888" d="M154.5 277.5h300" class="mark-rule role-axis-domain"/><text fill="currentColor" class="mark-text role-axis-title" font-family="sans-serif" font-size="11" font-weight="bold" text-anchor="middle" transform="translate(304.5 307.5)">time(ns)</text></g><g fill="#4c78a8" aria-roledescription="rect mark container" class="mark-rect role-mark child_marks"><path d="M154 58h.055v18H154Z" aria-label="time(ns): 1.099; function: null; type: large; name: MSC" aria-roledescription="bar" opacity=".96"/><path d="M154 218h141.126v18H154Z" aria-label="time(ns): 2822.528; function: std::sprintf_s; type: large; name: MSC" aria-roledescription="bar" opacity=".96"/><path d="M154 78h1.37v18H154Z" aria-label="time(ns): 27.386; function: std::to_chars; type: large; name: MSC" aria-roledescription="bar" opacity=".96"/><path d="M154 258h284.665v18H154Z" aria-label="time(ns): 5693.304; function: std::to_string; type: large; name: MSC" aria-roledescription="bar" opacity=".96"/><path d="M154 238h198.25v18H154Z" aria-label="time(ns): 3965.009; function: std::ostringstream; type: large; name: MSC" aria-roledescription="bar" opacity=".96"/><path d="M154 158h6.956v18H154Z" aria-label="time(ns): 139.111; function: stbsp_snprintf; type: large; name: STB" aria-roledescription="bar" opacity=".96"/><path d="M154 98h.124v18H154Z" aria-label="time(ns): 2.484; function: double_conversion::ToFixed; type: large; name: GOOGLE" aria-roledescription="bar" opacity=".96"/><path d="M154 118h1.755v18H154Z" aria-label="time(ns): 35.095; function: dtoa_milo; type: large; name: MILO" aria-roledescription="bar" opacity=".96"/><path d="M154 178h12.404v18H154Z" aria-label="time(ns): 248.071; function: d2fixed_buffered; type: large; name: RYU" aria-roledescription="bar" opacity=".96"/><path d="M154 138h2.335v18H154Z" aria-label="time(ns): 46.704; function: fpconv_dtoa; type: large; name: FPCONV" aria-roledescription="bar" opacity=".96"/><path d="M154 198h149.17v18H154Z" aria-label="time(ns): 2983.392; function: CRT::RealToString; type: large; name: Q-TEE" aria-roledescription="bar" opacity=".96"/></g><path stroke="#888" d="M478.5 57.5h300v220h-300Z" aria-hidden="true" class="background"/><g aria-hidden="true" class="mark-group role-axis" pointer-events="none"><path d="M478.5 277.5Z" aria-hidden="true" class="background"/><path stroke="#888" d="M478.5 277.5v-220m43 220v-220m43 220v-220m43 220v-220m42 220v-220m43 220v-220m43 220v-220m43 220v-220" class="mark-rule role-axis-grid"/></g><g aria-label="X-axis titled 'time(ns)' for a linear scale with values from 0 to 700" aria-roledescription="axis" class="mark-group role-axis" pointer-events="none"><path d="M478.5 277.5Z" aria-hidden="true" class="background"/><path stroke="#888" d="M478.5 277.5v5m43-5v5m43-5v5m43-5v5m42-5v5m43-5v5m43-5v5m43-5v5" class="mark-rule role-axis-tick"/><g fill="currentColor" class="mark-text role-axis-label" font-family="sans-serif" font-size="10"><text transform="translate(478.5 292.5)">0</text><text text-anchor="middle" transform="translate(521.357 292.5)">100</text><text text-anchor="middle" transform="translate(564.214 292.5)">200</text><text text-anchor="middle" transform="translate(607.071 292.5)">300</text><text text-anchor="middle" transform="translate(649.929 292.5)">400</text><text text-anchor="middle" transform="translate(692.786 292.5)">500</text><text text-anchor="middle" transform="translate(735.643 292.5)">600</text><text text-anchor="end" transform="translate(778.5 292.5)">700</text></g><path stroke="#888" d="M478.5 277.5h300" class="mark-rule role-axis-domain"/><text fill="currentColor" class="mark-text role-axis-title" font-family="sans-serif" font-size="11" font-weight="bold" text-anchor="middle" transform="translate(628.5 307.5)">time(ns)</text></g><g fill="#f58518" aria-roledescription="rect mark container" class="mark-rect role-mark child_marks"><path d="M478 58h.52v18H478Z" aria-label="time(ns): 1.215; function: null; type: medium; name: MSC" aria-roledescription="bar" opacity=".96"/><path d="M478 218h94.514v18H478Z" aria-label="time(ns): 220.532; function: std::sprintf_s; type: medium; name: MSC" aria-roledescription="bar" opacity=".96"/><path d="M478 78h12.166v18H478Z" aria-label="time(ns): 28.387; function: std::to_chars; type: medium; name: MSC" aria-roledescription="bar" opacity=".96"/><path d="M478 258h183.396v18H478Z" aria-label="time(ns): 427.924; function: std::to_string; type: medium; name: MSC" aria-roledescription="bar" opacity=".96"/><path d="M478 238h280.117v18H478Z" aria-label="time(ns): 653.607; function: std::ostringstream; type: medium; name: MSC" aria-roledescription="bar" opacity=".96"/><path d="M478 158h32.376v18H478Z" aria-label="time(ns): 75.543; function: stbsp_snprintf; type: medium; name: STB" aria-roledescription="bar" opacity=".96"/><path d="M478 98h21.379v18H478Z" aria-label="time(ns): 49.884; function: double_conversion::ToFixed; type: medium; name: GOOGLE" aria-roledescription="bar" opacity=".96"/><path d="M478 118h12.7v18H478Z" aria-label="time(ns): 29.633; function: dtoa_milo; type: medium; name: MILO" aria-roledescription="bar" opacity=".96"/><path d="M478 178h14.248v18H478Z" aria-label="time(ns): 33.246; function: d2fixed_buffered; type: medium; name: RYU" aria-roledescription="bar" opacity=".96"/><path d="M478 138h23.157v18H478Z" aria-label="time(ns): 54.034; function: fpconv_dtoa; type: medium; name: FPCONV" aria-roledescription="bar" opacity=".96"/><path d="M478 198h5.446v18H478Z" aria-label="time(ns): 12.708; function: CRT::RealToString; type: medium; name: Q-TEE" aria-roledescription="bar" opacity=".96"/></g><path stroke="#888" d="M802.5 57.5h300v220h-300Z" aria-hidden="true" class="background"/><g aria-hidden="true" class="mark-group role-axis" pointer-events="none"><path d="M802.5 277.5Z" aria-hidden="true" class="background"/><path stroke="#888" d="M802.5 277.5v-220m50 220v-220m50 220v-220m50 220v-220m50 220v-220m50 220v-220m50 220v-220" class="mark-rule role-axis-grid"/></g><g aria-label="X-axis titled 'time(ns)' for a linear scale with values from 0 to 600" aria-roledescription="axis" class="mark-group role-axis" pointer-events="none"><path d="M802.5 277.5Z" aria-hidden="true" class="background"/><path stroke="#888" d="M802.5 277.5v5m50-5v5m50-5v5m50-5v5m50-5v5m50-5v5m50-5v5" class="mark-rule role-axis-tick"/><g fill="currentColor" class="mark-text role-axis-label" font-family="sans-serif" font-size="10"><text transform="translate(802.5 292.5)">0</text><text text-anchor="middle" transform="translate(852.5 292.5)">100</text><text text-anchor="middle" transform="translate(902.5 292.5)">200</text><text text-anchor="middle" transform="translate(952.5 292.5)">300</text><text text-anchor="middle" transform="translate(1002.5 292.5)">400</text><text text-anchor="middle" transform="translate(1052.5 292.5)">500</text><text text-anchor="end" transform="translate(1102.5 292.5)">600</text></g><path stroke="#888" d="M802.5 277.5h300" class="mark-rule role-axis-domain"/><text fill="currentColor" class="mark-text role-axis-title" font-family="sans-serif" font-size="11" font-weight="bold" text-anchor="middle" transform="translate(952.5 307.5)">time(ns)</text></g><g fill="#e45756" aria-roledescription="rect mark container" class="mark-rect role-mark child_marks"><path d="M802 58h.623v18H802Z" aria-label="time(ns): 1.245; function: null; type: small; name: MSC" aria-roledescription="bar" opacity=".96"/><path d="M802 218h107.386v18H802Z" aria-label="time(ns): 214.771; function: std::sprintf_s; type: small; name: MSC" aria-roledescription="bar" opacity=".96"/><path d="M802 78h15.146v18H802Z" aria-label="time(ns): 30.292; function: std::to_chars; type: small; name: MSC" aria-roledescription="bar" opacity=".96"/><path d="M802 258h162.439v18H802Z" aria-label="time(ns): 324.878; function: std::to_string; type: small; name: MSC" aria-roledescription="bar" opacity=".96"/><path d="M802 238h289.832v18H802Z" aria-label="time(ns): 579.663; function: std::ostringstream; type: small; name: MSC" aria-roledescription="bar" opacity=".96"/><path d="M802 158h38.998v18H802Z" aria-label="time(ns): 77.997; function: stbsp_snprintf; type: small; name: STB" aria-roledescription="bar" opacity=".96"/><path d="M802 98h20.508v18H802Z" aria-label="time(ns): 41.016; function: double_conversion::ToFixed; type: small; name: GOOGLE" aria-roledescription="bar" opacity=".96"/><path d="M802 118h15.271v18H802Z" aria-label="time(ns): 30.542; function: dtoa_milo; type: small; name: MILO" aria-roledescription="bar" opacity=".96"/><path d="M802 178h10.663v18H802Z" aria-label="time(ns): 21.326; function: d2fixed_buffered; type: small; name: RYU" aria-roledescription="bar" opacity=".96"/><path d="M802 138h26.181v18H802Z" aria-label="time(ns): 52.362; function: fpconv_dtoa; type: small; name: FPCONV" aria-roledescription="bar" opacity=".96"/><path d="M802 198h6.064v18H802Z" aria-label="time(ns): 12.128; function: CRT::RealToString; type: small; name: Q-TEE" aria-roledescription="bar" opacity=".96"/></g></g><g aria-label="Symbol legend titled 'type' for fill color with 3 values: large, medium, small" aria-roledescription="legend" class="mark-group role-legend" pointer-events="none"><path d="M1122 57h52v53h-52Z" aria-hidden="true" class="background"/><g class="mark-group role-legend-entry"><path d="M1122 73Z" aria-hidden="true" class="background"/><g aria-roledescription="group mark container" class="mark-group role-scope"><path d="M1122 73h51.566v11H1122Z" aria-hidden="true" class="background"/><path fill="#4c78a8" d="M1123 74h10v10h-10Z" class="mark-symbol role-legend-symbol" opacity=".96"/><text fill="currentColor" class="mark-text role-legend-label" font-family="sans-serif" font-size="10" transform="translate(1138 82)">large</text><path d="M1122 86h51.566v11H1122Z" aria-hidden="true" class="background"/><path fill="#f58518" d="M1123 87h10v10h-10Z" class="mark-symbol role-legend-symbol" opacity=".96"/><text fill="currentColor" class="mark-text role-legend-label" font-family="sans-serif" font-size="10" transform="translate(1138 95)">medium</text><path d="M1122 99h51.566v11H1122Z" aria-hidden="true" class="background"/><path fill="#e45756" d="M1123 100h10v10h-10Z" class="mark-symbol role-legend-symbol" opacity=".96"/><text fill="currentColor" class="mark-text role-legend-label" font-family="sans-serif" font-size="10" transform="translate(1138 108)">small</text></g></g><text fill="currentColor" class="mark-text role-legend-title" font-family="sans-serif" font-size="11" font-weight="bold" transform="translate(1122 66)">type</text></g></g></svg>