<svg xmlns="http://www.w3.org/2000/svg" viewBox="0 0 1179 315"><g fill="none" stroke-miterlimit="10"><text fill="#fff" font-family="sans-serif" font-size="11" font-weight="bold" text-anchor="middle" transform="translate(628 14)">type</text><path d="M152 57v220Z" aria-hidden="true"/><path stroke="#888" d="M152.5 67.5h-5m5 20h-5m5 20h-5m5 20h-5m5 20h-5m5 20h-5m5 20h-5m5 20h-5m5 20h-5m5 20h-5m5 20h-5"/><g fill="#fff" font-family="sans-serif" font-size="10" text-anchor="end"><text transform="translate(145.5 70)">null</text><text transform="translate(145.5 90)">std::to_chars</text><text transform="translate(145.5 110)">double_conversion::ToFixed</text><text transform="translate(145.5 130)">dtoa_milo</text><text transform="translate(145.5 150)">fpconv_dtoa</text><text transform="translate(145.5 170)">stbsp_snprintf</text><text transform="translate(145.5 190)">d2fixed_buffered</text><text transform="translate(145.5 210)">CRT::RealToString</text><text transform="translate(145.5 230)">std::sprintf</text><text transform="translate(145.5 250)">std::ostringstream</text><text transform="translate(145.5 270)">std::to_string</text></g><path stroke="#888" d="M152.5 57.5v220"/><text fill="#fff" font-family="sans-serif" font-size="11" font-weight="bold" text-anchor="middle" transform="rotate(-90 91.24 76.26)">function</text><path d="M154 56h300z" aria-hidden="true"/><text fill="#fff" font-family="sans-serif" font-size="10" text-anchor="middle" transform="translate(304 44)">small</text><path d="M478 56h300z" aria-hidden="true"/><text fill="#fff" font-family="sans-serif" font-size="10" text-anchor="middle" transform="translate(628 44)">medium</text><path d="M802 56h300z" aria-hidden="true"/><text fill="#fff" font-family="sans-serif" font-size="10" text-anchor="middle" transform="translate(952 44)">large</text><path stroke="#ddd" d="M154.5 57.5h300v220h-300Zm0 220v-220m43 220v-220m43 220v-220m43 220v-220m42 220v-220m43 220v-220m43 220v-220m43 220v-220" aria-hidden="true"/><path stroke="#888" d="M154.5 277.5v5m43-5v5m43-5v5m43-5v5m42-5v5m43-5v5m43-5v5m43-5v5"/><g fill="#fff" font-family="sans-serif" font-size="10"><text transform="translate(154.5 292.5)">0</text><text text-anchor="middle" transform="translate(197.357 292.5)">100</text><text text-anchor="middle" transform="translate(240.214 292.5)">200</text><text text-anchor="middle" transform="translate(283.071 292.5)">300</text><text text-anchor="middle" transform="translate(325.929 292.5)">400</text><text text-anchor="middle" transform="translate(368.786 292.5)">500</text><text text-anchor="middle" transform="translate(411.643 292.5)">600</text><text text-anchor="end" transform="translate(454.5 292.5)">700</text></g><path stroke="#888" d="M154.5 277.5h300"/><text fill="#fff" font-family="sans-serif" font-size="11" font-weight="bold" text-anchor="middle" transform="translate(304.5 307.5)">time(ns)</text><path fill="#4c78a8" d="M154 58h.64v18H154Zm0 160h89.27v18H154Zm0-140h8.775v18H154Zm0 180h136.782v18H154Zm0-20h297.073v18H154Zm0-80h33.015v18H154Zm0-60h16.464v18H154Zm0 20h12.543v18H154Zm0 60h9.066v18H154Zm0-40h21.57v18H154Zm0 60h4.595v18H154Z" opacity=".96"/><path stroke="#ddd" d="M478.5 57.5h300v220h-300Zm0 220v-220m38 220v-220m37 220v-220m38 220v-220m37 220v-220m38 220v-220m37 220v-220m38 220v-220m37 220v-220" aria-hidden="true"/><path stroke="#888" d="M478.5 277.5v5m38-5v5m37-5v5m38-5v5m37-5v5m38-5v5m37-5v5m38-5v5m37-5v5"/><g fill="#fff" font-family="sans-serif" font-size="10"><text transform="translate(478.5 292.5)">0</text><text text-anchor="middle" transform="translate(516 292.5)">100</text><text text-anchor="middle" transform="translate(553.5 292.5)">200</text><text text-anchor="middle" transform="translate(591 292.5)">300</text><text text-anchor="middle" transform="translate(628.5 292.5)">400</text><text text-anchor="middle" transform="translate(666 292.5)">500</text><text text-anchor="middle" transform="translate(703.5 292.5)">600</text><text text-anchor="middle" transform="translate(741 292.5)">700</text><text text-anchor="end" transform="translate(778.5 292.5)">800</text></g><path stroke="#888" d="M478.5 277.5h300"/><text fill="#fff" font-family="sans-serif" font-size="11" font-weight="bold" text-anchor="middle" transform="translate(628.5 307.5)">time(ns)</text><path fill="#f58518" d="M478 58h.563v18H478Zm0 160h81.853v18H478Zm0-140h7.903v18H478Zm0 180h160.25v18H478Zm0-20h282.41v18H478Zm0-80h26.752v18H478Zm0-60h17.634v18H478Zm0 20h10.558v18H478Zm0 60h12.491v18H478Zm0-40h19.19v18H478Zm0 60h5.352v18H478Z" opacity=".96"/><path stroke="#ddd" d="M802.5 57.5h300v220h-300Zm0 220v-220m50 220v-220m50 220v-220m50 220v-220m50 220v-220m50 220v-220m50 220v-220" aria-hidden="true"/><path stroke="#888" d="M802.5 277.5v5m50-5v5m50-5v5m50-5v5m50-5v5m50-5v5m50-5v5"/><g fill="#fff" font-family="sans-serif" font-size="10"><text transform="translate(802.5 292.5)">0</text><text text-anchor="middle" transform="translate(852.5 292.5)">1,000</text><text text-anchor="middle" transform="translate(902.5 292.5)">2,000</text><text text-anchor="middle" transform="translate(952.5 292.5)">3,000</text><text text-anchor="middle" transform="translate(1002.5 292.5)">4,000</text><text text-anchor="middle" transform="translate(1052.5 292.5)">5,000</text><text text-anchor="end" transform="translate(1102.5 292.5)">6,000</text></g><path stroke="#888" d="M802.5 277.5h300"/><text fill="#fff" font-family="sans-serif" font-size="11" font-weight="bold" text-anchor="middle" transform="translate(952.5 307.5)">time(ns)</text><path fill="#e45756" d="M802 58h.065v18H802Zm0 160h140.812v18H802Zm0-140h1.016v18H802Zm0 180h282.919v18H802Zm0-20h202.61v18H802Zm0-80h6.799v18H802Zm0-60h.11v18H802Zm0 20h1.76v18H802Zm0 60h12.498v18H802Zm0-40h2.384v18H802Zm0 60h146.822v18H802Z" opacity=".96"/><path d="M1122 57h52v53h-52Z" aria-hidden="true"/><path d="M1122 73h51.566v11H1122Z" aria-hidden="true"/><path fill="#4c78a8" d="M1123 74h10v10h-10Z" opacity=".96"/><text fill="#fff" font-family="sans-serif" font-size="10" transform="translate(1138 82)">small</text><path d="M1122 86h51.566v11H1122Z" aria-hidden="true"/><path fill="#f58518" d="M1123 87h10v10h-10Z" opacity=".96"/><text fill="#fff" font-family="sans-serif" font-size="10" transform="translate(1138 95)">medium</text><path d="M1122 99h51.566v11H1122Z" aria-hidden="true"/><path fill="#e45756" d="M1123 100h10v10h-10Z" opacity=".96"/><text fill="#fff" font-family="sans-serif" font-size="10" transform="translate(1138 108)">large</text><text fill="#fff" font-family="sans-serif" font-size="11" font-weight="bold" transform="translate(1122 66)">type</text></g></svg>