<svg xmlns="http://www.w3.org/2000/svg" viewBox="0 0 1178 315"><g fill="none" stroke-miterlimit="10"><path d="M154 57Zm474-31Zm0-21Z" aria-hidden="true"/><text fill="#000" font-family="sans-serif" font-size="11" font-weight="bold" text-anchor="middle" transform="translate(628 14)">type</text><path d="M152 57v220Zm.5.5Z" aria-hidden="true"/><path stroke="#888" d="M152.5 67.5h-5m5 20h-5m5 20h-5m5 20h-5m5 20h-5m5 20h-5m5 20h-5m5 20h-5m5 20h-5m5 20h-5m5 20h-5"/><g fill="#000" font-family="sans-serif" font-size="10" text-anchor="end"><text transform="translate(145.5 70)">null</text><text transform="translate(145.5 90)">std::to_chars</text><text transform="translate(145.5 110)">double_conversion::ToFixed</text><text transform="translate(145.5 130)">dtoa_milo</text><text transform="translate(145.5 150)">fpconv_dtoa</text><text transform="translate(145.5 170)">d2fixed_buffered</text><text transform="translate(145.5 190)">stbsp_snprintf</text><text transform="translate(145.5 210)">CRT::RealToString</text><text transform="translate(145.5 230)">std::sprintf</text><text transform="translate(145.5 250)">std::ostringstream</text><text transform="translate(145.5 270)">std::to_string</text></g><path stroke="#888" d="M152.5 57.5v220"/><text fill="#000" font-family="sans-serif" font-size="11" font-weight="bold" text-anchor="middle" transform="rotate(-90 91.24 76.26)">function</text><path d="M154 56h300-300Zm150-20Z" aria-hidden="true"/><text fill="#000" font-family="sans-serif" font-size="10" text-anchor="middle" transform="translate(304 44)">small</text><path d="M478 56h300-300Zm150-20Z" aria-hidden="true"/><text fill="#000" font-family="sans-serif" font-size="10" text-anchor="middle" transform="translate(628 44)">medium</text><path d="M801 56h300-300Zm150-20Z" aria-hidden="true"/><text fill="#000" font-family="sans-serif" font-size="10" text-anchor="middle" transform="translate(951 44)">large</text><path stroke="#ddd" d="M154.5 57.5h300v220h-300Z" aria-hidden="true"/><g aria-hidden="true"><path d="M154.5 277.5Z" aria-hidden="true"/><path stroke="#ddd" d="M154.5 277.5v-220m50 220v-220m50 220v-220m50 220v-220m50 220v-220m50 220v-220m50 220v-220"/></g><path d="M154.5 277.5Z" aria-hidden="true"/><path stroke="#888" d="M154.5 277.5v5m50-5v5m50-5v5m50-5v5m50-5v5m50-5v5m50-5v5"/><g fill="#000" font-family="sans-serif" font-size="10"><text transform="translate(154.5 292.5)">0</text><text text-anchor="middle" transform="translate(204.5 292.5)">100</text><text text-anchor="middle" transform="translate(254.5 292.5)">200</text><text text-anchor="middle" transform="translate(304.5 292.5)">300</text><text text-anchor="middle" transform="translate(354.5 292.5)">400</text><text text-anchor="middle" transform="translate(404.5 292.5)">500</text><text text-anchor="end" transform="translate(454.5 292.5)">600</text></g><path stroke="#888" d="M154.5 277.5h300"/><text fill="#000" font-family="sans-serif" font-size="11" font-weight="bold" text-anchor="middle" transform="translate(304.5 307.5)">time(ns)</text><path fill="#4c78a8" d="M154 58h.623v18H154Zm0 160h102.078v18H154Zm0-140h13.595v18H154Zm0 180h161.352v18H154Zm0-20h277.622v18H154Zm0-60h39.175v18H154Zm0-80h19.156v18H154Zm0 20h14.85v18H154Zm0 40h10.611v18H154Zm0-20h25.287v18H154Zm0 60h6.125v18H154Z" opacity=".96"/><path stroke="#ddd" d="M478.5 57.5h300v220h-300Z" aria-hidden="true"/><g aria-hidden="true"><path d="M478.5 277.5Z" aria-hidden="true"/><path stroke="#ddd" d="M478.5 277.5v-220m46 220v-220m46 220v-220m46 220v-220m47 220v-220m46 220v-220m46 220v-220"/></g><path d="M478.5 277.5Z" aria-hidden="true"/><path stroke="#888" d="M478.5 277.5v5m46-5v5m46-5v5m46-5v5m47-5v5m46-5v5m46-5v5"/><g fill="#000" font-family="sans-serif" font-size="10"><text transform="translate(478.5 292.5)">0</text><text text-anchor="middle" transform="translate(524.654 292.5)">100</text><text text-anchor="middle" transform="translate(570.808 292.5)">200</text><text text-anchor="middle" transform="translate(616.962 292.5)">300</text><text text-anchor="middle" transform="translate(663.115 292.5)">400</text><text text-anchor="middle" transform="translate(709.27 292.5)">500</text><text text-anchor="middle" transform="translate(755.423 292.5)">600</text></g><path stroke="#888" d="M478.5 277.5h300"/><text fill="#000" font-family="sans-serif" font-size="11" font-weight="bold" text-anchor="middle" transform="translate(628.5 307.5)">time(ns)</text><path fill="#f58518" d="M478 58h.586v18H478Zm0 160h101.711v18H478Zm0-140h13.33v18H478Zm0 180h198.98v18H478Zm0-20h299.178v18H478Zm0-60h33.967v18H478Zm0-80h21.006v18H478Zm0 20h13.617v18H478Zm0 40h14.975v18H478Zm0-20h24.229v18H478Zm0 60h5.834v18H478Z" opacity=".96"/><path stroke="#ddd" d="M801.5 57.5h300v220h-300Z" aria-hidden="true"/><g aria-hidden="true"><path d="M801.5 277.5Z" aria-hidden="true"/><path stroke="#ddd" d="M801.5 277.5v-220m50 220v-220m50 220v-220m50 220v-220m50 220v-220m50 220v-220m50 220v-220"/></g><path d="M801.5 277.5Z" aria-hidden="true"/><path stroke="#888" d="M801.5 277.5v5m50-5v5m50-5v5m50-5v5m50-5v5m50-5v5m50-5v5"/><g fill="#000" font-family="sans-serif" font-size="10"><text transform="translate(801.5 292.5)">0</text><text text-anchor="middle" transform="translate(851.5 292.5)">1,000</text><text text-anchor="middle" transform="translate(901.5 292.5)">2,000</text><text text-anchor="middle" transform="translate(951.5 292.5)">3,000</text><text text-anchor="middle" transform="translate(1001.5 292.5)">4,000</text><text text-anchor="middle" transform="translate(1051.5 292.5)">5,000</text><text text-anchor="end" transform="translate(1101.5 292.5)">6,000</text></g><path stroke="#888" d="M801.5 277.5h300"/><text fill="#000" font-family="sans-serif" font-size="11" font-weight="bold" text-anchor="middle" transform="translate(951.5 307.5)">time(ns)</text><path fill="#e45756" d="M801 58h.064v18H801Zm0 160h140.125v18H801Zm0-140h1.386v18H801Zm0 180h284.207v18H801Zm0-20h198.32v18H801Zm0-60h7.643v18H801Zm0-80h.125v18H801Zm0 20h1.755v18H801Zm0 40h12.4v18H801Zm0-20h2.321v18H801Zm0 60h149.166v18H801Z" opacity=".96"/><path d="M1121 57h52v53h-52Zm0 16Z" aria-hidden="true"/><path d="M1121 73h51.566v11H1121Z" aria-hidden="true"/><path fill="#4c78a8" d="M1122 74h10v10h-10Z" opacity=".96"/><text fill="#000" font-family="sans-serif" font-size="10" transform="translate(1137 82)">small</text><path d="M1121 86h51.566v11H1121Z" aria-hidden="true"/><path fill="#f58518" d="M1122 87h10v10h-10Z" opacity=".96"/><text fill="#000" font-family="sans-serif" font-size="10" transform="translate(1137 95)">medium</text><path d="M1121 99h51.566v11H1121Z" aria-hidden="true"/><path fill="#e45756" d="M1122 100h10v10h-10Z" opacity=".96"/><text fill="#000" font-family="sans-serif" font-size="10" transform="translate(1137 108)">large</text><text fill="#000" font-family="sans-serif" font-size="11" font-weight="bold" transform="translate(1121 66)">type</text></g></svg>