<svg xmlns="http://www.w3.org/2000/svg" viewBox="0 0 1179 315"><g fill="none" stroke-miterlimit="10"><path d="M154 57Zm474-31Zm0-21Z" aria-hidden="true"/><text fill="#000" font-family="sans-serif" font-size="11" font-weight="bold" text-anchor="middle" transform="translate(628 14)">type</text><path d="M152 57v220Zm.5.5Z" aria-hidden="true"/><path stroke="#888" d="M152.5 67.5h-5m5 20h-5m5 20h-5m5 20h-5m5 20h-5m5 20h-5m5 20h-5m5 20h-5m5 20h-5m5 20h-5m5 20h-5"/><g fill="#000" font-family="sans-serif" font-size="10" text-anchor="end"><text transform="translate(145.5 70)">null</text><text transform="translate(145.5 90)">std::to_chars</text><text transform="translate(145.5 110)">double_conversion::ToFixed</text><text transform="translate(145.5 130)">dtoa_milo</text><text transform="translate(145.5 150)">fpconv_dtoa</text><text transform="translate(145.5 170)">d2fixed_buffered</text><text transform="translate(145.5 190)">stbsp_snprintf</text><text transform="translate(145.5 210)">CRT::RealToString</text><text transform="translate(145.5 230)">std::sprintf</text><text transform="translate(145.5 250)">std::ostringstream</text><text transform="translate(145.5 270)">std::to_string</text></g><path stroke="#888" d="M152.5 57.5v220"/><text fill="#000" font-family="sans-serif" font-size="11" font-weight="bold" text-anchor="middle" transform="rotate(-90 91.24 76.26)">function</text><path d="M154 56h300-300Zm150-20Z" aria-hidden="true"/><text fill="#000" font-family="sans-serif" font-size="10" text-anchor="middle" transform="translate(304 44)">small</text><path d="M478 56h300-300Zm150-20Z" aria-hidden="true"/><text fill="#000" font-family="sans-serif" font-size="10" text-anchor="middle" transform="translate(628 44)">medium</text><path d="M802 56h300-300Zm150-20Z" aria-hidden="true"/><text fill="#000" font-family="sans-serif" font-size="10" text-anchor="middle" transform="translate(952 44)">large</text><path stroke="#ddd" d="M154.5 57.5h300v220h-300Z" aria-hidden="true"/><g aria-hidden="true"><path d="M154.5 277.5Z" aria-hidden="true"/><path stroke="#ddd" d="M154.5 277.5v-220m50 220v-220m50 220v-220m50 220v-220m50 220v-220m50 220v-220m50 220v-220"/></g><path d="M154.5 277.5Z" aria-hidden="true"/><path stroke="#888" d="M154.5 277.5v5m50-5v5m50-5v5m50-5v5m50-5v5m50-5v5m50-5v5"/><g fill="#000" font-family="sans-serif" font-size="10"><text transform="translate(154.5 292.5)">0</text><text text-anchor="middle" transform="translate(204.5 292.5)">100</text><text text-anchor="middle" transform="translate(254.5 292.5)">200</text><text text-anchor="middle" transform="translate(304.5 292.5)">300</text><text text-anchor="middle" transform="translate(354.5 292.5)">400</text><text text-anchor="middle" transform="translate(404.5 292.5)">500</text><text text-anchor="end" transform="translate(454.5 292.5)">600</text></g><path stroke="#888" d="M154.5 277.5h300"/><text fill="#000" font-family="sans-serif" font-size="11" font-weight="bold" text-anchor="middle" transform="translate(304.5 307.5)">time(ns)</text><path fill="#e45756" d="M154 58h.631v18H154Zm0 160h106.14v18H154Zm0-140h13.922v18H154Zm0 180h167.798v18H154Zm0-20h294.403v18H154Zm0-60h39.34v18H154Zm0-80h18.777v18H154Zm0 20h15.344v18H154Zm0 40h10.822v18H154Zm0-20h26.45v18H154Zm0 60h5.728v18H154Z" opacity=".96"/><path stroke="#ddd" d="M478.5 57.5h300v220h-300Z" aria-hidden="true"/><g aria-hidden="true"><path d="M478.5 277.5Z" aria-hidden="true"/><path stroke="#ddd" d="M478.5 277.5v-220m43 220v-220m43 220v-220m43 220v-220m42 220v-220m43 220v-220m43 220v-220m43 220v-220"/></g><path d="M478.5 277.5Z" aria-hidden="true"/><path stroke="#888" d="M478.5 277.5v5m43-5v5m43-5v5m43-5v5m42-5v5m43-5v5m43-5v5m43-5v5"/><g fill="#000" font-family="sans-serif" font-size="10"><text transform="translate(478.5 292.5)">0</text><text text-anchor="middle" transform="translate(521.357 292.5)">100</text><text text-anchor="middle" transform="translate(564.214 292.5)">200</text><text text-anchor="middle" transform="translate(607.071 292.5)">300</text><text text-anchor="middle" transform="translate(649.929 292.5)">400</text><text text-anchor="middle" transform="translate(692.786 292.5)">500</text><text text-anchor="middle" transform="translate(735.643 292.5)">600</text><text text-anchor="end" transform="translate(778.5 292.5)">700</text></g><path stroke="#888" d="M478.5 277.5h300"/><text fill="#000" font-family="sans-serif" font-size="11" font-weight="bold" text-anchor="middle" transform="translate(628.5 307.5)">time(ns)</text><path fill="#f58518" d="M478 58h.55v18H478Zm0 160h94.634v18H478Zm0-140h12.347v18H478Zm0 180h184.369v18H478Zm0-20h286.346v18H478Zm0-60h32.284v18H478Zm0-80h20.639v18H478Zm0 20h12.684v18H478Zm0 40h14.199v18H478Zm0-20h22.778v18H478Zm0 60h5.527v18H478Z" opacity=".96"/><path stroke="#ddd" d="M802.5 57.5h300v220h-300Z" aria-hidden="true"/><g aria-hidden="true"><path d="M802.5 277.5Z" aria-hidden="true"/><path stroke="#ddd" d="M802.5 277.5v-220m50 220v-220m50 220v-220m50 220v-220m50 220v-220m50 220v-220m50 220v-220"/></g><path d="M802.5 277.5Z" aria-hidden="true"/><path stroke="#888" d="M802.5 277.5v5m50-5v5m50-5v5m50-5v5m50-5v5m50-5v5m50-5v5"/><g fill="#000" font-family="sans-serif" font-size="10"><text transform="translate(802.5 292.5)">0</text><text text-anchor="middle" transform="translate(852.5 292.5)">1,000</text><text text-anchor="middle" transform="translate(902.5 292.5)">2,000</text><text text-anchor="middle" transform="translate(952.5 292.5)">3,000</text><text text-anchor="middle" transform="translate(1002.5 292.5)">4,000</text><text text-anchor="middle" transform="translate(1052.5 292.5)">5,000</text><text text-anchor="end" transform="translate(1102.5 292.5)">6,000</text></g><path stroke="#888" d="M802.5 277.5h300"/><text fill="#000" font-family="sans-serif" font-size="11" font-weight="bold" text-anchor="middle" transform="translate(952.5 307.5)">time(ns)</text><path fill="#4c78a8" d="M802 58h.082v18H802Zm0 160h146.744v18H802Zm0-140h1.38v18H802Zm0 180h288.605v18H802Zm0-20h200.449v18H802Zm0-60h7.531v18H802Zm0-80h.124v18H802Zm0 20h1.774v18H802Zm0 40h12.406v18H802Zm0-20h2.329v18H802Zm0 60h149.433v18H802Z" opacity=".96"/><path d="M1122 57h52v53h-52Zm0 16Z" aria-hidden="true"/><path d="M1122 73h51.566v11H1122Z" aria-hidden="true"/><path fill="#4c78a8" d="M1123 74h10v10h-10Z" opacity=".96"/><text fill="#000" font-family="sans-serif" font-size="10" transform="translate(1138 82)">large</text><path d="M1122 86h51.566v11H1122Z" aria-hidden="true"/><path fill="#f58518" d="M1123 87h10v10h-10Z" opacity=".96"/><text fill="#000" font-family="sans-serif" font-size="10" transform="translate(1138 95)">medium</text><path d="M1122 99h51.566v11H1122Z" aria-hidden="true"/><path fill="#e45756" d="M1123 100h10v10h-10Z" opacity=".96"/><text fill="#000" font-family="sans-serif" font-size="10" transform="translate(1138 108)">small</text><text fill="#000" font-family="sans-serif" font-size="11" font-weight="bold" transform="translate(1122 66)">type</text></g></svg>